#!OML:ASF H:\LiuWeirdWalks\Patient Classification 1\Patient 1\Session 1\male.ASF
:FULLY-SPECIFIED
:DEGREES
1451
root 1.67696 17.6279 22.3478 175.173 -2.14843 188.617
lowerback 5.73786 6.76449 6.35864
upperback -0.0885116 9.37981 -1.2063
thorax -2.06518 4.60229 -5.36392
lowerneck -16.0297 -1.64831 8.92499
upperneck 8.31849 -3.55404 -4.8352
head 4.84932 -1.79864 -3.2572
rclavicle -4.4329e-014 3.81667e-014
rhumerus -20.1298 -11.0166 -79.9238
rradius 46.9905
rwrist -12.5086
rhand -15.1809 -3.0466
rfingers 7.12502
rthumb 10.9903 -32.7389
lclavicle -4.4329e-014 3.81667e-014
lhumerus -43.9103 14.2963 69.7564
lradius 22.4715
lwrist 1.72096
lhand -9.35331 2.31131
lfingers 7.12502
lthumb 16.6063 31.6208
rfemur 25.7697 -1.83298 33.2359
rtibia 2.30418
rfoot -5.10573 -18.9653
rtoes -10.1294
lfemur -47.7232 0.500579 -3.86372
ltibia 34.9565
lfoot 8.27391 4.29717
ltoes -17.7784
1452
root 1.64977 17.6105 22.2152 175.452 -1.83355 188.521
lowerback 5.4392 6.66712 6.13627
upperback -0.0731162 9.2201 -1.11479
thorax -1.95438 4.53047 -5.10461
lowerneck -15.7046 -1.31983 9.41225
upperneck 7.52975 -3.13668 -5.41208
head 4.56411 -1.63366 -3.46579
rclavicle -8.0806e-014 1.59028e-014
rhumerus -20.194 -10.5512 -80.3399
rradius 46.4463
rwrist -12.2856
rhand -14.8171 -3.06709
rfingers 7.12502
rthumb 11.3412 -32.7404
lclavicle -8.0806e-014 1.59028e-014
lhumerus -43.7955 14.3311 70.1306
lradius 22.674
lwrist 2.22085
lhand -9.51587 2.25317
lfingers 7.12502
lthumb 16.4498 31.5757
rfemur 24.8916 -1.54685 33.0838
rtibia 4.48949
rfoot -6.05233 -19.2121
rtoes -10.6268
lfemur -46.6632 0.713273 -4.11822
ltibia 34.7689
lfoot 8.85488 5.44639
ltoes -18.0617
1453
root 1.62146 17.5924 22.0798 175.734 -1.55171 188.409
lowerback 5.14731 6.64212 5.95696
upperback -0.135616 9.16281 -1.12303
thorax -1.89092 4.50634 -4.98103
lowerneck -15.5862 -1.13996 9.85091
upperneck 7.17022 -2.946 -5.77246
head 4.43644 -1.55865 -3.62781
rclavicle -8.77137e-014 -2.38542e-014
rhumerus -20.4882 -10.4012 -80.7496
rradius 45.9149
rwrist -12.0857
rhand -14.5493 -3.11762
rfingers 7.12502
rthumb 11.5994 -32.7766
lclavicle -8.77137e-014 -2.38542e-014
lhumerus -43.6476 13.963 70.4801
lradius 22.8512
lwrist 2.78799
lhand -9.67825 2.21761
lfingers 7.12502
lthumb 16.2935 31.5531
rfemur 24.3826 -1.28247 32.889
rtibia 5.94444
rfoot -6.62525 -19.3422
rtoes -11.1268
lfemur -45.5978 0.912004 -4.41783
ltibia 34.6207
lfoot 9.50665 6.59414
ltoes -18.2492
1454
root 1.59223 17.5737 21.9418 176.014 -1.30072 188.288
lowerback 4.84714 6.62297 5.77596
upperback -0.208918 9.11371 -1.14534
thorax -1.83056 4.4859 -4.87117
lowerneck -15.4903 -0.987151 10.2696
upperneck 6.86711 -2.79506 -6.07715
head 4.32944 -1.49913 -3.7738
rclavicle -5.59082e-014 -1.11319e-014
rhumerus -20.8369 -10.314 -81.1366
rradius 45.3683
rwrist -11.9262
rhand -14.3863 -3.20723
rfingers 7.12502
rthumb 11.7566 -32.8573
lclavicle -5.59082e-014 -1.11319e-014
lhumerus -43.4818 13.5381 70.803
lradius 22.9984
lwrist 3.33973
lhand -9.8283 2.21648
lfingers 7.12502
lthumb 16.149 31.5637
rfemur 24.0196 -1.04322 32.6633
rtibia 7.11471
rfoot -7.03179 -19.4144
rtoes -11.6529
lfemur -44.5328 1.11717 -4.76638
ltibia 34.5247
lfoot 10.212 7.6584
ltoes -18.3249
1455
root 1.5621 17.5544 21.8014 176.289 -1.0797 188.168
lowerback 4.60153 6.66174 5.64558
upperback -0.402667 9.15186 -1.24601
thorax -1.89421 4.50186 -4.88779
lowerneck -15.584 -1.00722 10.5192
upperneck 7.08244 -2.87481 -6.09488
head 4.40053 -1.52856 -3.83046
rclavicle -8.43592e-015 1.27222e-014
rhumerus -21.4983 -10.4898 -81.4963
rradius 44.8663
rwrist -11.7969
rhand -14.341 -3.34905
rfingers 7.12502
rthumb 11.8002 -32.9966
lclavicle -8.43592e-015 1.27222e-014
lhumerus -43.3982 12.7526 71.069
lradius 23.1216
lwrist 3.87186
lhand -10.0014 2.22894
lfingers 7.12502
lthumb 15.9823 31.5896
rfemur 23.7485 -0.831411 32.4223
rtibia 8.1157
rfoot -7.33701 -19.4419
rtoes -12.181
lfemur -43.4742 1.35485 -5.16025
ltibia 34.4921
lfoot 10.9393 8.5371
ltoes -18.2749
